<?xml version="1.0" standalone="no"?>
<!DOCTYPE svg PUBLIC "-//W3C//DTD SVG 20010904//EN"
 "http://www.w3.org/TR/2001/REC-SVG-20010904/DTD/svg10.dtd">
<svg version="1.0" xmlns="http://www.w3.org/2000/svg"
 width="800.000000pt" height="800.000000pt" viewBox="0 0 800.000000 800.000000"
 preserveAspectRatio="xMidYMid meet">
<metadata>
Created by potrace 1.14, written by Peter Selinger 2001-2017
</metadata>
<g transform="translate(0.000000,800.000000) scale(0.100000,-0.100000)"
fill="#000000" stroke="none">
<path d="M0 4000 l0 -4000 4000 0 4000 0 0 4000 0 4000 -4000 0 -4000 0 0
-4000z m3855 2215 c91 -25 233 -97 312 -159 39 -31 93 -86 120 -123 71 -98 77
-111 64 -140 -6 -13 -11 -25 -11 -27 0 -2 42 -6 93 -10 119 -8 254 -35 268
-52 8 -10 11 -71 10 -192 -1 -97 3 -220 9 -272 27 -225 93 -451 193 -655 l64
-130 6 -195 c4 -107 11 -233 17 -280 15 -112 39 -220 51 -220 12 0 184 82 230
110 36 22 37 22 75 4 61 -29 159 -131 219 -228 163 -264 166 -615 6 -865 l-31
-48 -110 5 -111 5 7 -29 c26 -108 154 -392 244 -540 l38 -63 -51 -53 c-194
-200 -603 -322 -882 -263 -72 15 -221 71 -230 86 -3 4 -7 115 -9 246 -3 268
-18 398 -45 387 -9 -3 -86 -10 -171 -15 -85 -5 -198 -13 -250 -19 -201 -24
-437 -80 -447 -107 -7 -17 14 -337 23 -370 14 -51 -157 -175 -301 -220 -90
-27 -369 -24 -478 5 -221 60 -401 218 -457 400 l-20 65 39 61 c187 297 291
675 291 1064 l0 133 59 138 c148 344 197 598 189 971 l-5 205 39 63 c109 178
194 392 240 602 20 92 23 135 24 354 l1 249 24 19 c57 45 180 97 280 118 65
14 303 4 374 -15z"/>
<path d="M3923 4274 c-72 -200 -104 -373 -119 -631 -5 -88 -3 -123 5 -123 6 0
71 26 143 57 112 48 141 57 186 55 40 -1 52 2 52 13 0 25 -75 242 -130 375
-28 69 -66 167 -84 219 l-32 94 -21 -59z"/>
</g>
</svg>
